<?xml version="1.0" encoding="UTF-8" standalone="no"?>
<svg 
  version="1.1" 
  xmlns="http://www.w3.org/2000/svg" 
  xmlns:xlink="http://www.w3.org/1999/xlink" 
  xmlns:svg="http://www.w3.org/2000/svg"
  xmlns:rdf="http://www.w3.org/1999/02/22-rdf-syntax-ns#"
  xmlns:cc="http://creativecommons.org/ns#"
  xmlns:dc="http://purl.org/dc/elements/1.1/"
  viewBox="0 0 768 768"
  width="768"
  height="768"
>
<style>svg {background-color: white; }</style>"
<metadata id="metadata1">
Created by https://svgstud.io and licensed under CC-BY-SA 4.0 license. Please attribute https://svgstud.io
</metadata>
<metadata id="prompt">
food plate between fork and knife
</metadata>
<metadata id="version">
7
</metadata>
<metadata id="metadata2">
<rdf:RDF>
<cc:Work
    rdf:about="">
    <cc:license
    rdf:resource="http://creativecommons.org/licenses/by-sa/4.0/" />
    <dc:creator>
        <cc:Agent>
            <dc:title>https://svgstud.io</dc:title>
        </cc:Agent>
    </dc:creator>
</cc:Work>
<cc:License
    rdf:about="http://creativecommons.org/licenses/by-sa/4.0/">
    <cc:permits
    rdf:resource="http://creativecommons.org/ns#Reproduction" />
    <cc:permits
    rdf:resource="http://creativecommons.org/ns#Distribution" />
    <cc:requires
    rdf:resource="http://creativecommons.org/ns#Notice" />
    <cc:requires
    rdf:resource="http://creativecommons.org/ns#Attribution" />
    <cc:permits
    rdf:resource="http://creativecommons.org/ns#DerivativeWorks" />
    <cc:requires
    rdf:resource="http://creativecommons.org/ns#ShareAlike" />
</cc:License>
</rdf:RDF>
</metadata>
<metadata id="uid">
55224c230741cb3a377047bfc40d72e39ba05011c817e7d1e8b4b52911fe1523
</metadata>
<path stroke="none" fill="black" fill-rule="evenodd" d="M379.00,545.25C374.32,545.46 365.32,545.32 359.00,544.94C352.68,544.55 342.55,543.24 336.50,542.02C330.45,540.79 320.21,538.06 313.74,535.95C307.28,533.83 297.38,529.77 291.74,526.93C286.11,524.08 278.57,519.86 275.00,517.55C271.43,515.23 265.04,510.55 260.81,507.13C256.58,503.72 249.60,497.17 245.30,492.57C241.00,487.98 234.91,480.65 231.78,476.30C228.65,471.95 224.03,464.98 221.53,460.82C219.03,456.65 214.92,448.35 212.41,442.37C209.91,436.39 206.58,426.55 205.02,420.50C203.46,414.45 201.64,405.10 200.97,399.72C200.19,393.47 199.93,382.84 200.26,370.22C200.63,355.63 201.33,347.67 202.94,339.63C204.14,333.65 206.48,324.65 208.15,319.63C209.82,314.61 212.88,306.87 214.94,302.44C217.00,298.01 221.44,290.30 224.80,285.30C228.16,280.31 233.28,273.36 236.17,269.86C239.07,266.36 244.50,260.48 248.24,256.80C251.97,253.11 257.61,248.11 260.77,245.68C263.92,243.26 270.45,238.70 275.28,235.56C280.11,232.41 288.21,227.90 293.28,225.53C298.35,223.16 308.25,219.39 315.29,217.14C322.32,214.90 332.87,212.13 338.74,211.00C344.60,209.87 355.22,208.46 362.33,207.86C371.79,207.07 378.93,207.08 388.88,207.91C396.37,208.54 407.45,210.11 413.50,211.41C419.55,212.71 428.10,214.98 432.50,216.45C436.90,217.93 444.55,221.05 449.50,223.39C454.45,225.73 462.20,229.95 466.71,232.75C471.23,235.56 478.21,240.46 482.21,243.63C486.22,246.81 493.13,253.07 497.57,257.53C502.01,262.00 508.36,269.22 511.69,273.60C515.02,277.97 519.67,284.68 522.03,288.52C524.39,292.36 528.48,300.00 531.12,305.50C533.75,311.00 537.23,319.55 538.84,324.50C540.45,329.45 542.84,338.45 544.13,344.50C546.17,354.03 546.48,358.24 546.48,376.00C546.48,391.75 546.06,398.59 544.68,405.50C543.68,410.45 541.82,418.10 540.54,422.50C539.27,426.90 537.31,432.75 536.21,435.50C535.10,438.25 532.75,443.62 530.97,447.44C529.20,451.25 525.81,457.65 523.44,461.66C521.06,465.67 516.30,472.68 512.85,477.23C509.39,481.78 502.05,490.00 496.53,495.50C491.02,501.00 482.33,508.43 477.23,512.00C472.13,515.58 463.58,520.86 458.23,523.75C452.88,526.63 443.98,530.77 438.45,532.95C432.92,535.12 424.06,538.03 418.75,539.41C413.45,540.79 404.25,542.58 398.30,543.39C392.36,544.21 383.68,545.05 379.00,545.25zM426.00,523.59C429.57,523.26 435.25,522.07 438.62,520.96C441.99,519.84 448.74,516.87 453.62,514.37C458.50,511.86 466.09,507.26 470.48,504.15C474.87,501.04 482.58,494.38 487.62,489.34C492.80,484.15 499.62,475.90 503.32,470.34C506.92,464.93 511.90,456.68 514.38,452.00C516.86,447.32 520.21,439.45 521.82,434.50C523.43,429.55 525.30,422.35 525.97,418.50C526.65,414.65 527.04,409.93 526.85,408.00C526.52,404.80 526.25,405.23 523.61,413.00C522.02,417.68 519.03,425.77 516.96,431.00C514.89,436.23 511.54,443.43 509.51,447.00C507.49,450.57 503.30,457.02 500.20,461.33C497.10,465.64 491.75,472.44 488.32,476.44C484.89,480.45 478.35,486.99 473.79,490.98C469.23,494.96 461.51,500.92 456.64,504.21C451.76,507.51 441.41,513.35 433.64,517.20C419.50,524.19 419.50,524.19 426.00,523.59zM158.50,514.30C156.85,514.60 153.98,514.40 152.12,513.86C150.26,513.32 147.65,512.16 146.33,511.30C145.00,510.43 142.75,507.72 141.32,505.29C138.82,501.02 138.75,500.44 139.33,489.68C139.66,483.53 141.06,465.90 142.45,450.50C143.89,434.46 145.47,406.70 146.14,385.50C146.79,365.15 147.01,346.84 146.62,344.80C146.24,342.77 144.37,339.23 142.46,336.95C140.55,334.66 138.66,331.60 138.27,330.15C137.87,328.69 137.54,311.21 137.52,291.30C137.51,263.65 137.80,254.81 138.75,253.85C139.54,253.06 140.35,252.95 140.94,253.55C141.45,254.07 142.19,266.47 142.58,281.10C143.10,300.69 142.99,307.89 142.15,308.41C141.52,308.80 141.00,310.22 141.00,311.56C141.00,314.00 141.00,314.00 153.81,314.00C162.62,314.00 167.16,313.60 168.36,312.72C169.85,311.63 169.97,310.80 169.13,306.97C168.58,304.51 167.55,294.40 166.82,284.50C166.09,274.60 165.50,262.94 165.50,258.59C165.50,253.20 165.89,250.54 166.74,250.26C167.42,250.03 168.41,250.89 168.94,252.17C169.47,253.45 170.69,263.05 171.64,273.50C172.60,283.95 173.41,301.53 173.44,312.57C173.50,332.64 173.50,332.64 169.65,338.88C166.30,344.31 165.73,346.12 165.28,352.81C164.99,357.04 165.28,373.55 165.91,389.50C166.55,405.45 167.74,428.18 168.55,440.00C169.37,451.82 170.75,468.70 171.62,477.50C172.49,486.30 172.93,495.49 172.60,497.92C172.26,500.35 170.85,504.28 169.46,506.66C168.06,509.04 165.70,511.61 164.21,512.37C162.72,513.14 160.15,514.00 158.50,514.30zM600.88,513.00C598.38,512.99 595.19,512.20 593.46,511.14C591.78,510.12 589.21,507.85 587.73,506.10C586.26,504.34 584.54,501.02 583.90,498.70C583.17,496.03 582.97,490.50 583.34,483.50C583.66,477.45 584.87,461.70 586.02,448.50C587.27,434.25 588.35,411.63 588.70,392.81C589.28,361.12 589.28,361.12 586.23,358.31C584.55,356.77 581.04,353.48 578.43,351.02C575.82,348.56 572.51,344.06 571.09,341.02C568.66,335.83 568.50,334.60 568.54,320.50C568.58,309.38 569.05,303.82 570.36,299.00C571.33,295.43 573.87,288.90 575.99,284.50C578.11,280.10 581.50,274.58 583.52,272.22C585.55,269.87 588.48,267.28 590.05,266.47C591.62,265.66 594.30,265.00 596.00,265.00C597.70,265.00 600.35,265.65 601.87,266.44C603.40,267.22 606.24,269.63 608.18,271.77C610.11,273.92 612.93,278.28 614.44,281.47C615.95,284.65 618.25,291.47 619.55,296.61C620.86,301.75 622.22,309.91 622.58,314.73C622.97,319.95 622.77,326.53 622.08,330.97C621.38,335.44 619.80,340.45 618.13,343.47C616.60,346.24 613.95,350.75 612.25,353.50C609.15,358.50 609.15,358.50 611.03,394.00C612.07,413.52 613.41,436.70 614.00,445.50C614.60,454.30 615.77,468.79 616.60,477.70C617.77,490.29 617.85,494.86 616.96,498.20C616.33,500.57 614.94,503.94 613.86,505.70C612.78,507.46 610.41,509.82 608.58,510.95C606.55,512.20 603.56,513.00 600.88,513.00zM153.76,508.00C156.69,508.00 158.40,507.33 160.32,505.41C161.74,503.99 163.44,501.19 164.10,499.20C164.95,496.62 165.11,490.77 164.65,479.04C164.29,469.94 163.35,452.38 162.55,440.00C161.76,427.62 160.58,403.77 159.94,387.00C159.30,370.23 159.07,352.92 159.43,348.55C160.07,340.73 160.15,340.53 165.04,335.36C167.77,332.47 170.46,328.93 171.00,327.49C171.55,326.05 172.00,323.77 172.00,322.43C172.00,320.00 172.00,320.00 157.58,320.00C149.65,320.00 142.45,320.27 141.58,320.61C140.60,320.98 140.00,322.41 140.01,324.36C140.01,326.09 140.81,328.70 141.78,330.18C142.75,331.65 144.83,333.86 146.40,335.10C149.25,337.34 149.25,337.34 148.68,383.42C148.37,408.76 147.65,434.90 147.07,441.50C146.50,448.10 145.07,462.60 143.90,473.73C142.70,485.09 142.07,495.58 142.46,497.66C142.88,499.86 144.50,502.70 146.48,504.68C149.12,507.32 150.61,508.00 153.76,508.00zM383.50,506.26C389.55,505.97 399.45,504.72 405.50,503.49C411.55,502.26 421.00,499.57 426.50,497.50C432.00,495.44 440.10,491.95 444.49,489.74C448.89,487.54 455.86,483.48 459.99,480.73C464.12,477.97 472.69,470.49 479.02,464.11C485.53,457.55 493.26,448.50 496.78,443.32C500.21,438.27 504.53,430.61 506.37,426.31C508.21,422.00 510.43,416.01 511.30,412.99C512.17,409.97 513.54,403.45 514.35,398.50C515.16,393.55 516.10,385.38 516.44,380.35C516.78,375.32 516.59,366.25 516.02,360.19C515.45,354.13 513.86,344.75 512.49,339.35C511.11,333.94 508.46,326.29 506.59,322.35C504.72,318.41 500.81,311.67 497.91,307.37C495.01,303.07 488.80,295.58 484.11,290.71C479.42,285.84 472.20,279.32 468.07,276.21C463.94,273.10 456.99,268.43 452.63,265.84C448.27,263.25 440.23,259.27 434.75,257.00C429.28,254.72 424.57,253.09 424.29,253.37C424.01,253.66 424.81,255.37 426.06,257.19C427.31,259.01 431.15,264.33 434.59,269.01C438.02,273.68 442.00,279.82 443.41,282.64C445.53,286.86 447.17,288.47 452.74,291.81C456.46,294.03 462.20,298.03 465.50,300.70C468.80,303.37 473.52,306.75 476.00,308.21C478.48,309.67 481.79,312.10 483.38,313.59C484.96,315.09 487.09,318.20 488.11,320.51C489.26,323.11 491.48,325.72 493.93,327.34C496.75,329.20 498.20,331.05 498.94,333.73C499.52,335.83 499.98,347.04 499.97,359.00C499.97,370.82 499.52,383.65 498.97,387.50C498.43,391.35 496.83,399.15 495.42,404.83C494.01,410.52 491.29,418.82 489.38,423.28C487.47,427.74 484.26,434.11 482.25,437.44C480.24,440.77 475.20,448.22 471.05,453.99C466.90,459.76 461.62,466.33 459.33,468.58C457.03,470.83 452.08,474.28 448.33,476.24C444.57,478.20 437.50,481.21 432.60,482.93C427.71,484.64 418.03,487.26 411.10,488.73C399.55,491.19 396.62,491.42 376.00,491.41C356.36,491.41 352.16,491.12 343.00,489.14C337.23,487.89 329.12,485.72 325.00,484.32C320.88,482.92 314.08,480.01 309.91,477.86C305.74,475.71 299.31,471.46 295.62,468.42C291.93,465.37 285.99,459.20 282.42,454.69C278.85,450.19 273.48,441.72 270.49,435.87C267.50,430.03 263.67,421.15 261.99,416.13C260.31,411.12 258.07,402.85 257.01,397.76C255.94,392.67 254.61,384.45 254.05,379.50C253.48,374.55 253.01,366.63 253.01,361.91C253.00,357.18 253.50,349.53 254.12,344.91C254.73,340.28 255.81,335.37 256.52,334.00C257.22,332.62 258.74,330.64 259.90,329.59C261.05,328.55 262.00,327.08 262.00,326.35C262.00,325.61 261.35,325.00 260.55,325.00C259.75,325.00 257.93,325.53 256.51,326.18C254.74,326.98 252.66,329.92 249.95,335.43C247.72,339.96 245.11,347.45 244.01,352.50C242.60,358.95 242.04,365.36 242.02,375.14C242.01,383.45 242.61,392.02 243.57,397.07C244.44,401.62 246.25,408.87 247.61,413.16C248.97,417.45 251.83,424.78 253.97,429.45C256.12,434.11 259.78,440.75 262.10,444.21C264.43,447.67 269.26,454.03 272.84,458.35C276.41,462.66 282.50,468.92 286.37,472.25C290.24,475.58 296.80,480.53 300.95,483.25C305.10,485.96 312.55,490.13 317.50,492.52C322.46,494.90 329.95,498.01 334.17,499.42C338.38,500.83 345.13,502.70 349.16,503.56C353.20,504.42 360.10,505.50 364.50,505.96C368.90,506.42 377.45,506.56 383.50,506.26zM599.62,507.00C601.33,507.00 603.97,506.02 605.49,504.83C607.00,503.64 608.86,501.18 609.62,499.36C610.38,497.55 611.00,492.87 611.00,488.98C611.00,485.08 610.32,471.68 609.48,459.19C608.64,446.71 607.09,418.05 606.02,395.50C604.08,354.50 604.08,354.50 609.01,345.92C611.81,341.04 614.60,334.57 615.46,330.92C616.29,327.39 616.98,321.95 616.99,318.84C616.99,315.72 616.33,309.65 615.50,305.35C614.68,301.04 612.87,294.14 611.49,290.01C610.11,285.88 607.63,280.15 605.98,277.27C604.25,274.25 601.67,271.37 599.88,270.44C598.07,269.50 595.77,269.09 594.33,269.45C592.98,269.79 589.99,271.97 587.69,274.28C585.39,276.60 582.06,281.22 580.31,284.54C578.55,287.85 576.08,294.15 574.82,298.54C572.91,305.14 572.52,308.88 572.52,320.50C572.51,333.23 572.73,334.94 574.89,339.29C576.19,341.93 579.28,345.76 581.76,347.79C584.23,349.83 587.50,352.65 589.02,354.06C591.59,356.45 591.83,357.37 592.51,367.36C592.92,373.27 592.73,391.24 592.10,407.30C591.47,423.36 590.29,443.93 589.47,453.00C588.65,462.07 587.70,475.35 587.36,482.50C586.86,493.09 587.03,496.19 588.31,499.23C589.19,501.32 591.33,503.84 593.19,504.97C595.01,506.08 597.90,506.99 599.62,507.00zM380.14,472.87C384.90,472.94 393.45,472.53 399.14,471.95C404.84,471.37 413.63,470.05 418.67,469.00C423.72,467.95 432.18,465.66 437.47,463.91C442.76,462.15 448.27,459.79 449.71,458.65C451.16,457.52 454.98,452.52 458.20,447.54C461.43,442.57 466.26,434.00 468.93,428.50C471.61,423.00 475.41,414.35 477.39,409.28C479.36,404.22 482.56,394.09 484.49,386.78C486.42,379.48 488.00,372.49 488.00,371.25C488.00,370.01 487.74,369.00 487.42,369.00C487.11,369.00 483.85,370.77 480.17,372.94C476.50,375.10 469.92,378.28 465.55,380.00C461.18,381.73 452.61,384.42 446.52,386.00C440.42,387.57 430.72,389.55 424.97,390.40C419.21,391.24 409.55,392.40 403.50,392.97C397.45,393.53 386.88,393.99 380.00,393.99C373.12,393.98 362.10,393.52 355.50,392.96C348.90,392.39 337.88,391.04 331.00,389.95C324.12,388.87 312.52,386.58 305.21,384.87C297.89,383.16 291.62,382.05 291.26,382.40C290.91,382.76 291.66,387.43 292.93,392.77C294.19,398.12 297.41,409.16 300.07,417.30C302.73,425.43 307.41,437.25 310.46,443.55C313.51,449.85 317.63,456.80 319.62,459.00C322.31,461.98 324.79,463.47 329.47,464.92C332.90,465.98 340.16,467.80 345.61,468.96C351.05,470.12 359.10,471.44 363.50,471.90C367.90,472.36 375.39,472.79 380.14,472.87zM335.09,456.00C334.59,456.00 333.05,454.66 331.67,453.03C330.30,451.39 327.37,445.43 325.17,439.78C322.97,434.12 319.78,423.83 318.09,416.91C316.39,409.98 314.71,401.54 314.36,398.16C313.97,394.48 314.10,392.00 314.67,392.00C315.19,392.00 316.33,392.56 317.20,393.25C318.09,393.95 320.64,401.35 322.97,410.00C325.27,418.52 329.14,431.61 331.57,439.08C334.01,446.55 336.00,453.41 336.00,454.33C336.00,455.25 335.59,456.00 335.09,456.00zM387.00,377.54C412.67,377.29 420.91,376.86 431.50,375.20C438.65,374.08 449.13,371.99 454.80,370.55C460.46,369.12 468.46,366.61 472.56,364.98C476.66,363.35 481.76,360.91 483.89,359.57C486.19,358.12 488.21,355.84 488.86,353.96C489.47,352.23 490.26,347.92 490.62,344.40C490.98,340.88 490.90,338.00 490.43,338.00C489.96,338.00 485.94,339.57 481.48,341.48C477.03,343.39 468.91,346.34 463.44,348.02C457.97,349.71 448.10,352.16 441.50,353.48C434.90,354.80 423.88,356.60 417.00,357.50C410.12,358.39 393.93,359.38 381.00,359.70C366.31,360.07 351.88,359.84 342.50,359.09C334.25,358.43 320.98,356.99 313.00,355.89C305.02,354.78 294.45,352.99 289.50,351.90C284.55,350.81 276.79,348.72 272.25,347.26C266.36,345.35 263.70,344.90 262.93,345.67C262.16,346.44 262.18,347.96 263.00,350.98C263.62,353.32 265.26,356.27 266.64,357.54C268.02,358.82 273.05,361.28 277.82,363.01C282.59,364.74 291.68,367.48 298.00,369.09C304.32,370.70 315.80,372.92 323.50,374.03C331.20,375.14 341.55,376.45 346.50,376.94C351.45,377.44 369.68,377.70 387.00,377.54zM384.00,352.20C387.02,352.03 390.40,351.70 391.50,351.46C392.60,351.22 394.97,348.77 396.76,346.01C398.55,343.26 400.45,341.00 400.98,341.00C401.51,341.00 402.66,343.48 403.54,346.50C404.92,351.24 405.48,352.00 407.60,352.00C408.96,352.00 410.31,351.37 410.60,350.60C410.90,349.83 410.20,347.35 409.05,345.09C407.89,342.83 405.80,337.80 404.40,333.91C403.00,330.02 398.26,319.68 393.87,310.92C389.31,301.84 385.29,295.00 384.50,295.00C383.73,295.00 381.02,297.59 378.46,300.75C375.91,303.91 371.53,308.89 368.74,311.82C365.94,314.75 359.46,320.07 354.33,323.64C349.21,327.21 343.70,331.45 342.09,333.06C340.49,334.67 338.42,337.95 337.51,340.35C336.59,342.75 335.99,346.01 336.17,347.60C336.43,349.91 337.05,350.56 339.21,350.81C341.52,351.08 342.15,350.57 343.51,347.31C344.39,345.22 346.29,342.26 347.74,340.75C349.19,339.24 350.96,338.00 351.69,338.00C352.41,338.00 353.00,338.58 353.00,339.29C353.00,340.00 352.10,342.34 351.00,344.50C349.90,346.66 349.00,349.22 349.00,350.18C349.00,351.78 350.44,351.97 363.75,352.22C371.86,352.38 380.98,352.36 384.00,352.20zM209.41,342.00C210.75,337.32 213.28,329.45 215.04,324.50C216.79,319.55 219.80,312.35 221.73,308.50C223.65,304.65 226.83,298.80 228.79,295.50C230.76,292.20 235.45,285.31 239.23,280.19C243.00,275.06 250.23,266.71 255.29,261.63C260.36,256.55 268.10,249.69 272.50,246.38C276.90,243.08 284.04,237.95 288.37,234.98C292.70,232.01 295.77,229.42 295.20,229.23C294.62,229.04 292.20,229.86 289.82,231.06C287.45,232.25 282.80,234.84 279.50,236.80C276.20,238.77 270.30,242.72 266.39,245.59C262.48,248.46 256.22,253.67 252.49,257.15C248.75,260.64 243.37,266.43 240.53,270.00C237.68,273.57 232.80,280.16 229.67,284.64C226.55,289.12 221.50,297.94 218.47,304.25C215.31,310.82 211.88,319.95 210.44,325.61C209.06,331.05 207.72,338.88 207.45,343.00C206.97,350.50 206.97,350.50 209.41,342.00zM321.67,350.00C324.29,350.00 325.05,349.54 325.40,347.75C325.63,346.51 326.36,342.80 327.00,339.50C328.08,334.01 328.73,332.98 334.68,327.30C338.25,323.89 340.88,320.62 340.52,320.03C340.16,319.45 338.06,318.05 335.86,316.93C333.61,315.78 330.47,315.02 328.69,315.19C326.05,315.45 325.11,316.30 322.93,320.45C321.49,323.17 319.85,325.55 319.28,325.74C318.71,325.93 317.06,324.07 315.61,321.61C314.17,319.14 311.08,315.56 308.74,313.65C306.41,311.73 302.25,309.04 299.50,307.67C296.75,306.30 291.69,304.63 288.26,303.96C283.19,302.97 281.72,302.99 280.43,304.06C279.16,305.11 278.97,306.56 279.50,311.44C279.85,314.77 281.02,322.77 282.09,329.21C283.16,335.66 284.29,341.59 284.60,342.39C284.91,343.20 286.59,344.37 288.33,344.99C290.07,345.61 294.61,346.39 298.41,346.72C305.31,347.32 305.31,347.32 304.64,343.91C304.27,342.03 302.75,337.39 301.26,333.59C299.50,329.10 296.84,324.80 293.65,321.30C290.95,318.35 288.98,315.69 289.27,315.40C289.56,315.11 292.07,316.01 294.84,317.42C297.61,318.82 302.14,322.24 304.91,325.01C309.27,329.36 310.31,331.22 312.61,338.77C314.08,343.57 315.97,348.06 316.83,348.75C317.68,349.44 319.86,350.00 321.67,350.00zM383.63,346.92C383.01,346.88 381.94,346.62 381.25,346.34C380.56,346.06 380.00,345.00 380.00,343.98C380.00,342.97 380.95,341.83 382.11,341.46C383.44,341.04 384.80,341.37 385.78,342.35C387.05,343.63 387.10,344.17 386.04,345.45C385.33,346.30 384.25,346.96 383.63,346.92zM422.38,344.67C423.55,343.90 424.65,342.28 424.83,341.08C425.09,339.34 425.44,339.12 426.53,340.03C427.29,340.66 428.39,340.88 428.98,340.52C429.56,340.15 431.21,337.54 432.65,334.71C434.08,331.88 437.99,326.72 441.32,323.24C444.66,319.77 449.73,315.58 452.59,313.95C455.46,312.31 458.04,310.33 458.34,309.56C458.64,308.78 458.23,307.61 457.44,306.95C456.55,306.21 453.96,305.92 450.65,306.20C446.98,306.50 442.75,307.94 437.24,310.76C432.80,313.02 425.11,317.39 420.15,320.46C415.18,323.53 410.84,326.92 410.50,328.00C410.16,329.07 410.74,331.89 411.80,334.27C412.85,336.65 415.19,340.28 416.99,342.33C420.01,345.77 420.43,345.96 422.38,344.67zM439.72,336.98C441.25,336.96 444.45,336.50 446.82,335.95C449.20,335.41 454.97,334.57 459.63,334.10C466.29,333.42 468.63,332.75 470.51,330.99C471.82,329.76 473.61,326.67 474.48,324.12C476.02,319.64 476.00,319.45 473.92,317.75C472.44,316.54 470.04,316.00 466.14,316.01C462.27,316.02 458.85,316.79 455.25,318.47C452.36,319.81 447.79,323.11 445.10,325.80C442.41,328.49 439.47,332.11 438.58,333.85C436.95,337.00 436.95,337.00 439.72,336.98zM370.90,332.00C369.99,332.00 368.69,331.33 368.00,330.51C367.00,329.30 367.08,328.53 368.39,326.52C369.29,325.15 371.12,323.76 372.46,323.42C373.79,323.09 375.36,323.11 375.94,323.46C376.52,323.82 377.00,325.19 377.00,326.50C377.00,327.83 376.02,329.57 374.78,330.44C373.56,331.30 371.81,332.00 370.90,332.00zM387.73,329.00C387.51,329.00 387.03,328.70 386.67,328.33C386.30,327.97 386.00,326.65 386.00,325.40C386.00,324.02 386.77,322.89 387.99,322.50C389.09,322.16 390.44,322.15 390.99,322.49C391.55,322.84 392.00,323.98 392.00,325.02C392.00,326.07 391.13,327.40 390.07,327.96C389.00,328.53 387.95,329.00 387.73,329.00zM348.81,317.95C348.98,317.98 350.89,316.57 353.06,314.83C355.23,313.09 357.00,310.83 357.00,309.81C357.00,308.79 354.92,303.82 352.37,298.75C349.83,293.68 347.13,287.77 346.36,285.61C345.60,283.45 345.17,281.49 345.41,281.25C345.65,281.01 346.81,281.12 347.97,281.49C349.14,281.86 354.30,286.18 359.44,291.09C366.64,297.98 368.92,299.66 369.39,298.42C369.73,297.54 369.55,293.96 368.99,290.46C368.44,286.97 367.69,283.30 367.34,282.30C367.00,281.31 364.71,275.85 362.27,270.17C359.83,264.48 358.06,259.60 358.35,259.32C358.63,259.04 359.94,259.61 361.25,260.60C362.56,261.59 365.02,264.22 366.72,266.45C368.43,268.68 370.99,272.72 372.43,275.44C373.87,278.15 375.20,280.53 375.39,280.72C375.58,280.92 376.92,277.88 378.37,273.98C379.82,270.08 381.00,265.42 381.00,263.64C381.00,261.72 379.72,258.37 377.86,255.45C376.14,252.73 371.86,247.69 368.36,244.25C364.85,240.81 361.39,238.00 360.67,238.00C359.94,238.00 353.79,245.99 346.99,255.75C340.20,265.51 332.35,276.80 329.57,280.84C324.59,288.04 324.49,288.34 324.15,296.61C323.92,302.11 324.20,305.54 324.97,306.47C325.62,307.25 328.93,308.82 332.33,309.95C335.72,311.09 340.75,313.34 343.50,314.96C346.25,316.58 348.64,317.92 348.81,317.95zM407.06,317.00C407.59,317.00 410.55,314.94 413.64,312.43C416.72,309.92 422.68,306.20 426.87,304.18C431.07,302.16 435.04,299.82 435.70,299.00C436.37,298.18 437.20,295.64 437.55,293.36C437.94,290.86 437.73,288.36 437.01,287.03C436.09,285.29 435.27,284.96 433.17,285.45C431.70,285.80 426.13,289.01 420.79,292.60C415.46,296.18 409.90,300.52 408.45,302.25C406.99,303.97 405.42,306.39 404.96,307.61C404.47,308.88 404.54,311.36 405.10,313.41C405.65,315.39 406.53,317.00 407.06,317.00zM156.54,307.35C155.73,307.66 154.75,307.41 154.38,306.80C154.00,306.19 153.33,300.02 152.89,293.09C152.45,286.17 152.07,273.86 152.05,265.75C152.00,251.99 152.13,251.00 153.87,251.00C155.41,251.00 155.85,252.02 156.35,256.75C156.69,259.91 157.48,271.38 158.10,282.23C158.72,293.07 158.96,303.04 158.62,304.37C158.29,305.69 157.35,307.03 156.54,307.35zM399.09,302.99C399.42,303.00 400.83,300.86 402.22,298.25C403.62,295.64 406.45,288.87 408.51,283.20C410.57,277.54 413.11,271.91 414.15,270.70C416.05,268.50 416.05,268.50 415.43,272.15C415.09,274.15 413.79,279.33 412.54,283.65C411.28,287.97 410.63,291.65 411.10,291.82C411.56,292.00 413.73,290.71 415.91,288.95C418.10,287.19 420.65,284.15 421.58,282.19C422.94,279.32 423.15,276.95 422.66,270.04C422.33,265.32 421.55,260.00 420.93,258.23C420.31,256.45 419.48,255.00 419.07,255.00C418.67,255.00 416.14,256.46 413.45,258.24C410.76,260.02 405.75,264.11 402.31,267.32C398.62,270.78 395.05,275.28 393.58,278.33C392.21,281.18 390.83,284.62 390.52,286.00C390.10,287.83 391.09,290.45 394.22,295.74C396.57,299.72 398.77,302.99 399.09,302.99zM315.50,301.71C317.23,301.53 317.58,300.55 318.07,294.50C318.38,290.65 318.34,287.15 317.98,286.72C317.63,286.28 314.67,287.33 311.42,289.04C308.16,290.74 304.49,293.09 303.25,294.25C302.01,295.40 301.00,296.70 301.00,297.14C301.00,297.57 303.81,298.83 307.25,299.93C310.69,301.03 314.40,301.83 315.50,301.71z" />

</svg>